# xmcd CD database file
#
# Track frame offsets:
#	150
#	6490
#	26462
#	43210
#	52450
#	67905
#	92622
#	106895
#	127462
#	150925
#	166312
#	185932
#	204842
#
# Disc length: 3009 seconds
#
# Revision: 1
# Processed by: cddbd v1.5PL3 Copyright (c) Steve Scherf et al.
# Submitted via: CDex 1.51
#
DISCID=b50bbf0d
DTITLE=桑島法子 - En Route
DYEAR=2003
DGENRE=JPop
TTITLE0=ドロレスの子守唄
TTITLE1=解き放て！
TTITLE2=Sweet
TTITLE3=貝がらの夢
TTITLE4=桃天使2003
TTITLE5=旅のはじまり
TTITLE6=明日は負けないGO! FRIEND!
TTITLE7=territory
TTITLE8=Be turned 〜万難天地〜
TTITLE9=情熱
TTITLE10=Anniversary
TTITLE11=海から生まれた子供たち
TTITLE12=明日の花
EXTD=YEAR: 2003
EXTT0=
EXTT1=
EXTT2=
EXTT3=
EXTT4=
EXTT5=
EXTT6=
EXTT7=
EXTT8=
EXTT9=
EXTT10=
EXTT11=
EXTT12=
PLAYORDER=
